<?xml version="1.0" standalone="no"?>
<!DOCTYPE svg PUBLIC "-//W3C//DTD SVG 20010904//EN"
 "http://www.w3.org/TR/2001/REC-SVG-20010904/DTD/svg10.dtd">
<svg version="1.0" xmlns="http://www.w3.org/2000/svg"
 width="192.000000pt" height="192.000000pt" viewBox="0 0 192.000000 192.000000"
 preserveAspectRatio="xMidYMid meet">
<metadata>
Created by potrace 1.14, written by Peter Selinger 2001-2017
</metadata>
<g transform="translate(0.000000,192.000000) scale(0.100000,-0.100000)"
fill="#000000" stroke="none">
<path d="M663 1728 c-4 -7 -8 -65 -8 -128 l0 -115 -263 -2 -263 -1 -30 -31
-29 -31 0 -589 0 -590 24 -28 c24 -28 25 -28 161 -31 109 -3 140 -1 153 11 22
19 77 20 93 1 14 -17 90 -19 107 -2 18 18 95 18 107 1 8 -11 102 -13 548 -11
l539 3 24 28 24 29 -2 598 c-3 586 -3 599 -23 614 -29 23 -77 34 -102 25 -12
-5 -24 -5 -27 0 -8 12 -128 2 -144 -12 -20 -16 -84 -15 -97 1 -7 9 -40 14
-100 15 l-90 2 0 115 c-1 64 -4 121 -9 128 -11 18 -581 17 -593 0z m445 -195
l3 -51 -151 1 -150 0 0 52 0 51 148 -1 147 0 3 -52z"/>
</g>
</svg>
